<svg width="48" height="48" viewBox="0 0 48 48" fill="none" xmlns="http://www.w3.org/2000/svg">
<rect width="48" height="48" rx="24" fill="#213727"/>
<path d="M14.25 18.75C14.25 27.0343 20.9657 33.75 29.25 33.75H31.5C32.7426 33.75 33.75 32.7426 33.75 31.5V30.1284C33.75 29.6121 33.3987 29.1622 32.8979 29.037L28.4747 27.9312C28.0355 27.8214 27.5734 27.9855 27.3018 28.3476L26.3316 29.6412C26.05 30.0166 25.563 30.1827 25.1223 30.0212C21.8154 28.8098 19.1902 26.1846 17.9788 22.8777C17.8173 22.437 17.9834 21.95 18.3588 21.6684L19.6524 20.6982C20.0145 20.4266 20.1786 19.9645 20.0688 19.5253L18.963 15.1021C18.8378 14.6013 18.3879 14.25 17.8716 14.25H16.5C15.2574 14.25 14.25 15.2574 14.25 16.5V18.75Z" stroke="#4EE472" stroke-width="1.5" stroke-linecap="round" stroke-linejoin="round"/>
</svg>
