<svg width="48" height="48" viewBox="0 0 48 48" fill="none" xmlns="http://www.w3.org/2000/svg">
<rect width="48" height="48" rx="20" fill="#0DABF7" fill-opacity="0.2"/>
<path d="M13.5347 16.1152V31.8832C13.5347 34.3921 15.7331 36.3177 18.1845 35.9563L31.5517 33.9863C33.2245 33.7398 34.4656 32.2874 34.4656 30.5754V17.4246C34.4656 15.7126 33.2245 14.2602 31.5517 14.0137L18.1845 12.0438C15.7331 11.6823 13.5347 13.6063 13.5347 16.1152ZM30.1889 30.4817L19.3997 31.4938C18.7573 31.5546 18.2008 31.042 18.2008 30.3881V17.6103C18.2008 16.9564 18.7556 16.4438 19.3997 16.5046L30.1889 17.5167C30.6691 17.561 31.0358 17.9685 31.0358 18.4565V29.5419C31.0358 30.0299 30.6691 30.4374 30.1889 30.4817Z" fill="url(#paint0_linear_1475_3263)"/>
<defs>
<linearGradient id="paint0_linear_1475_3263" x1="14.0328" y1="14.2372" x2="32.6686" y2="33.4755" gradientUnits="userSpaceOnUse">
<stop stop-color="#32E6F0"/>
<stop offset="0.2" stop-color="#2CDDF1"/>
<stop offset="0.52" stop-color="#1DC4F4"/>
<stop offset="0.93" stop-color="#049DF9"/>
<stop offset="1" stop-color="#0096FA"/>
</linearGradient>
</defs>
</svg>
