<svg width="49" height="48" viewBox="0 0 49 48" fill="none" xmlns="http://www.w3.org/2000/svg">
<rect x="0.833008" width="48" height="48" rx="19" fill="#93D2FF"/>
<g clip-path="url(#clip0_3105_3520)">
<path d="M25.0186 33.8267C26.3727 33.8267 27.5576 33.5516 28.5733 33.0015C29.5889 32.4513 30.3782 31.6798 30.9414 30.687C31.5046 29.6942 31.7862 28.537 31.7862 27.2154C31.7862 26.5643 31.7145 25.923 31.5713 25.2915C31.4281 24.66 31.2523 24.0643 31.044 23.5044C30.8356 22.9445 30.6371 22.4497 30.4483 22.02C29.9274 20.8416 29.291 19.6307 28.5391 18.3872C27.7871 17.1437 27.0531 15.9718 26.3369 14.8716C26.1676 14.6112 25.9772 14.4093 25.7656 14.2661C25.554 14.1229 25.305 14.0513 25.0186 14.0513C24.7321 14.0513 24.4847 14.1229 24.2764 14.2661C24.068 14.4093 23.876 14.6112 23.7002 14.8716C22.9906 15.9718 22.2581 17.1437 21.5029 18.3872C20.7477 19.6307 20.1097 20.8416 19.5889 22.02C19.4001 22.4497 19.2015 22.9445 18.9932 23.5044C18.7848 24.0643 18.609 24.66 18.4658 25.2915C18.3226 25.923 18.251 26.5643 18.251 27.2154C18.251 28.537 18.5326 29.6942 19.0957 30.687C19.6589 31.6798 20.4482 32.4513 21.4639 33.0015C22.4795 33.5516 23.6644 33.8267 25.0186 33.8267ZM25.0186 32.2251C23.9834 32.2251 23.0784 32.0167 22.3037 31.6001C21.529 31.1834 20.9268 30.5991 20.4971 29.8472C20.0674 29.0952 19.8525 28.218 19.8525 27.2154C19.8525 26.4146 19.9779 25.6349 20.2285 24.8765C20.4792 24.118 20.7412 23.423 21.0146 22.7915C21.5615 21.509 22.1784 20.3224 22.8652 19.2319C23.5521 18.1414 24.2373 17.0819 24.9209 16.0532C24.9469 15.9946 24.9811 15.967 25.0234 15.9702C25.0658 15.9735 25.0999 16.0011 25.126 16.0532C25.8031 17.0819 26.4867 18.1398 27.1768 19.227C27.8669 20.3143 28.4788 21.4992 29.0127 22.7817C29.2861 23.4198 29.5514 24.118 29.8086 24.8765C30.0658 25.6349 30.1944 26.4146 30.1944 27.2154C30.1944 28.218 29.9779 29.0952 29.5449 29.8472C29.1119 30.5991 28.5081 31.1834 27.7334 31.6001C26.9587 32.0167 26.0537 32.2251 25.0186 32.2251Z" fill="black"/>
</g>
<defs>
<clipPath id="clip0_3105_3520">
<rect width="13.5352" height="19.7949" fill="white" transform="translate(18.251 14.0513)"/>
</clipPath>
</defs>
</svg>
