<svg width="25" height="24" viewBox="0 0 25 24" fill="none" xmlns="http://www.w3.org/2000/svg">
<path d="M11.0928 3.94002C11.1832 3.39756 11.6526 2.99997 12.2025 2.99997H13.2965C13.8464 2.99997 14.3158 3.39756 14.4062 3.94002L14.5552 4.83383C14.6259 5.2581 14.9388 5.59835 15.336 5.76329C15.7335 5.92829 16.1898 5.90625 16.54 5.65614L17.2775 5.1293C17.725 4.80966 18.3381 4.86039 18.7269 5.24926L19.5005 6.02281C19.8893 6.41168 19.9401 7.02469 19.6204 7.4722L19.0934 8.21003C18.8434 8.56009 18.8213 9.0163 18.9863 9.4136C19.1511 9.81075 19.4913 10.1236 19.9155 10.1943L20.8095 10.3433C21.3519 10.4337 21.7495 10.903 21.7495 11.453V12.547C21.7495 13.0969 21.3519 13.5662 20.8095 13.6566L19.9156 13.8056C19.4914 13.8763 19.1511 14.1892 18.9862 14.5865C18.8212 14.9839 18.8432 15.4402 19.0933 15.7904L19.6201 16.5278C19.9397 16.9753 19.889 17.5883 19.5001 17.9772L18.7266 18.7507C18.3377 19.1396 17.7247 19.1903 17.2772 18.8707L16.5396 18.3438C16.1895 18.0938 15.7333 18.0717 15.3359 18.2367C14.9387 18.4016 14.6259 18.7418 14.5552 19.166L14.4062 20.0599C14.3158 20.6024 13.8464 21 13.2965 21H12.2025C11.6526 21 11.1832 20.6024 11.0928 20.0599L10.9439 19.1661C10.8732 18.7418 10.5602 18.4016 10.163 18.2367C9.76559 18.0717 9.30926 18.0937 8.95911 18.3438L8.22149 18.8707C7.77398 19.1903 7.16097 19.1396 6.7721 18.7507L5.99855 17.9772C5.60968 17.5883 5.55895 16.9753 5.8786 16.5278L6.40563 15.7899C6.65567 15.4399 6.67772 14.9837 6.51277 14.5863C6.34788 14.1892 6.00771 13.8763 5.58353 13.8056L4.68956 13.6566C4.1471 13.5662 3.74951 13.0969 3.74951 12.547V11.453C3.74951 10.903 4.1471 10.4337 4.68956 10.3433L5.58337 10.1943C6.00764 10.1236 6.3479 9.81068 6.51283 9.41344C6.67784 9.01602 6.6558 8.55967 6.40569 8.20951L5.87899 7.47213C5.55934 7.02462 5.61008 6.41161 5.99895 6.02274L6.7725 5.24919C7.16136 4.86033 7.77438 4.80959 8.22188 5.12924L8.95948 5.65609C9.30955 5.90615 9.76579 5.92819 10.1631 5.76323C10.5603 5.59834 10.8731 5.25816 10.9438 4.83397L11.0928 3.94002Z" stroke="white" stroke-opacity="0.5" stroke-width="1.5" stroke-linecap="round" stroke-linejoin="round"/>
<path d="M15.7502 12C15.7502 13.6568 14.4071 15 12.7502 15C11.0934 15 9.75021 13.6568 9.75021 12C9.75021 10.3431 11.0934 8.99999 12.7502 8.99999C14.4071 8.99999 15.7502 10.3431 15.7502 12Z" stroke="white" stroke-opacity="0.5" stroke-width="1.5" stroke-linecap="round" stroke-linejoin="round"/>
</svg>
