<svg width="25" height="24" viewBox="0 0 25 24" fill="none" xmlns="http://www.w3.org/2000/svg">
<path d="M2.5 13.5H6.35942C7.21166 13.5 7.99075 13.9815 8.37188 14.7438L8.62812 15.2562C9.00925 16.0185 9.78834 16.5 10.6406 16.5H13.8594C14.7117 16.5 15.4908 16.0185 15.8719 15.2562L16.1281 14.7438C16.5092 13.9815 17.2883 13.5 18.1406 13.5H22M2.5 13.8383V18C2.5 19.2426 3.50736 20.25 4.75 20.25H19.75C20.9926 20.25 22 19.2426 22 18V13.8383C22 13.614 21.9665 13.391 21.9005 13.1766L19.4887 5.33831C19.1982 4.39423 18.326 3.75 17.3382 3.75H7.16179C6.17403 3.75 5.30178 4.39423 5.01129 5.33831L2.5995 13.1766C2.53354 13.391 2.5 13.614 2.5 13.8383Z" stroke="white" stroke-opacity="0.5" stroke-width="1.5" stroke-linecap="round" stroke-linejoin="round"/>
</svg>
